<?xml version="1.0" standalone="no"?>
<!DOCTYPE svg PUBLIC "-//W3C//DTD SVG 20010904//EN"
 "http://www.w3.org/TR/2001/REC-SVG-20010904/DTD/svg10.dtd">
<svg version="1.0" xmlns="http://www.w3.org/2000/svg"
 width="2100.000000pt" height="2100.000000pt" viewBox="0 0 2100.000000 2100.000000"
 preserveAspectRatio="xMidYMid meet">
<metadata>
Created by potrace 1.11, written by Peter Selinger 2001-2013
</metadata>
<g transform="translate(0.000000,2100.000000) scale(0.100000,-0.100000)"
fill="#000000" stroke="none">
<path d="M9619 20996 c-6 -6 -218 -28 -281 -30 -10 0 -18 -3 -18 -6 0 -3 -15
-5 -33 -6 -45 -1 -147 -13 -252 -29 -49 -8 -106 -16 -125 -19 -19 -2 -80 -12
-135 -22 -55 -9 -107 -17 -115 -19 -8 -1 -28 -5 -45 -8 -16 -4 -43 -9 -60 -12
-33 -5 -66 -12 -105 -20 -33 -7 -68 -14 -105 -21 -16 -3 -48 -9 -70 -15 -22
-5 -51 -12 -65 -15 -21 -4 -277 -66 -330 -79 -8 -2 -16 -4 -17 -5 -2 -2 -7 -4
-13 -5 -5 -1 -13 -4 -17 -5 -5 -1 -11 -2 -14 -2 -9 2 -317 -88 -459 -132 -63
-20 -122 -38 -131 -40 -8 -2 -33 -12 -55 -21 -21 -9 -41 -16 -44 -17 -6 -1
-12 -2 -65 -19 -22 -7 -56 -19 -75 -27 -19 -8 -36 -14 -37 -14 -4 2 -85 -27
-108 -37 -22 -10 -57 -24 -65 -25 -8 -2 -122 -46 -155 -60 -59 -26 -119 -51
-125 -52 -7 -1 -59 -22 -85 -34 -79 -36 -157 -70 -160 -70 -5 0 -114 -50 -252
-116 -51 -24 -97 -44 -103 -44 -5 0 -10 -4 -10 -10 0 -5 -3 -9 -7 -8 -8 2
-100 -43 -258 -126 -204 -107 -231 -122 -243 -133 -7 -7 -19 -13 -26 -13 -7 0
-22 -9 -34 -20 -12 -12 -22 -18 -22 -15 0 3 -18 -6 -40 -20 -22 -14 -42 -25
-44 -25 -9 0 -111 -65 -114 -73 -2 -4 -8 -5 -13 -1 -5 3 -9 0 -9 -5 0 -6 -5
-11 -10 -11 -6 0 -38 -18 -71 -40 -33 -22 -65 -40 -70 -40 -5 0 -9 -4 -9 -10
0 -5 -6 -10 -13 -10 -7 0 -22 -7 -32 -15 -11 -9 -96 -66 -190 -128 -93 -62
-190 -128 -215 -145 -25 -18 -65 -46 -90 -64 -25 -17 -59 -41 -77 -53 -17 -12
-38 -28 -46 -36 -9 -8 -43 -34 -76 -58 -34 -24 -61 -48 -61 -54 0 -6 -3 -7 -6
-4 -4 4 -21 -6 -39 -21 -18 -15 -45 -36 -59 -47 -14 -11 -36 -29 -49 -40 -13
-11 -38 -31 -57 -45 -18 -14 -41 -32 -52 -42 -10 -9 -38 -31 -61 -50 -23 -18
-57 -47 -77 -64 -19 -17 -48 -42 -64 -55 -15 -13 -38 -33 -51 -44 -12 -11 -50
-45 -85 -75 -70 -62 -94 -84 -275 -255 -70 -66 -131 -121 -136 -123 -5 -2 -9
-7 -9 -10 0 -4 -60 -68 -133 -143 -117 -121 -193 -202 -319 -343 -20 -22 -48
-53 -62 -68 -14 -16 -24 -28 -21 -28 2 0 -11 -15 -28 -33 -32 -34 -37 -40
-117 -137 -25 -30 -47 -57 -50 -60 -3 -3 -46 -57 -95 -120 -49 -63 -92 -117
-95 -120 -10 -9 -152 -201 -222 -300 -37 -52 -71 -100 -75 -105 -4 -6 -26 -37
-48 -70 -22 -33 -43 -61 -47 -63 -5 -2 -8 -8 -8 -13 0 -10 -35 -62 -57 -86 -6
-7 -15 -22 -18 -33 -3 -11 -11 -20 -16 -20 -5 0 -8 -3 -7 -7 2 -8 -39 -75
-104 -170 -15 -23 -28 -44 -28 -47 0 -3 -15 -30 -34 -59 -19 -29 -43 -69 -54
-88 -94 -165 -123 -216 -132 -229 -5 -8 -20 -35 -33 -60 -13 -25 -43 -81 -66
-125 -54 -100 -189 -368 -229 -455 -53 -115 -88 -193 -122 -270 -18 -41 -40
-93 -50 -115 -17 -39 -32 -75 -35 -85 -1 -3 -6 -16 -12 -30 -6 -14 -23 -56
-38 -95 -15 -38 -31 -79 -36 -90 -27 -60 -108 -289 -104 -296 3 -4 1 -9 -3
-11 -8 -3 -114 -311 -116 -338 -1 -8 -4 -17 -7 -20 -3 -3 -17 -45 -31 -95 -15
-49 -40 -137 -57 -194 -17 -57 -30 -106 -29 -110 1 -3 -2 -13 -5 -21 -8 -20
-44 -159 -53 -210 -10 -50 -11 -55 -17 -70 -3 -8 -9 -28 -13 -45 -9 -36 -7
-29 -28 -130 -10 -44 -19 -89 -22 -100 -12 -55 -17 -82 -19 -100 -1 -11 -5
-29 -8 -40 -4 -11 -23 -114 -42 -230 -20 -115 -38 -222 -40 -237 -3 -15 -7
-49 -10 -75 -3 -26 -7 -59 -10 -72 -2 -13 -7 -49 -11 -80 -3 -31 -7 -67 -9
-81 -2 -14 -6 -52 -9 -85 -4 -33 -9 -76 -11 -95 -3 -19 -7 -69 -10 -110 -3
-41 -7 -89 -9 -107 -7 -50 -19 -280 -20 -365 -1 -43 -5 -78 -9 -78 -8 0 -4
-749 6 -890 3 -47 8 -130 12 -185 3 -55 8 -116 10 -135 1 -19 6 -78 10 -130 3
-52 8 -102 10 -110 2 -8 7 -44 10 -80 3 -36 8 -83 11 -105 6 -40 8 -59 20
-149 3 -27 8 -58 10 -70 3 -12 7 -37 8 -56 3 -32 30 -208 42 -270 3 -14 9 -47
14 -75 5 -27 14 -75 20 -105 5 -30 12 -66 15 -80 3 -14 10 -50 16 -80 6 -30
13 -62 14 -70 2 -8 4 -15 5 -15 1 0 3 -9 5 -20 6 -34 27 -126 47 -210 11 -44
22 -87 24 -95 2 -8 11 -44 19 -80 9 -36 18 -72 20 -80 2 -8 4 -15 5 -15 1 0 3
-7 5 -15 16 -62 36 -136 55 -195 11 -38 23 -79 25 -90 5 -23 72 -232 82 -255
8 -18 7 -16 17 -60 5 -19 12 -41 17 -50 5 -8 15 -35 23 -60 22 -69 73 -211 87
-245 7 -16 13 -36 15 -44 1 -7 7 -18 13 -24 6 -6 11 -19 11 -29 0 -10 4 -26
10 -36 9 -16 30 -66 35 -84 2 -5 4 -11 5 -15 1 -5 2 -11 1 -15 0 -5 4 -8 9 -8
5 0 9 -3 8 -7 -1 -5 7 -28 18 -53 10 -25 18 -48 16 -53 -1 -4 3 -7 10 -7 6 0
9 -3 6 -6 -6 -5 14 -55 70 -174 14 -30 26 -57 27 -60 0 -3 12 -30 26 -60 14
-30 32 -70 39 -88 7 -17 16 -32 21 -32 5 0 6 -7 3 -15 -4 -8 -1 -15 5 -15 6 0
11 -7 11 -15 0 -8 4 -15 8 -15 5 0 9 -6 9 -12 0 -7 24 -60 53 -118 29 -58 71
-141 93 -185 22 -44 43 -82 46 -85 3 -3 22 -36 41 -75 19 -38 37 -72 40 -75 5
-5 29 -50 67 -123 8 -15 19 -27 24 -27 6 0 8 -4 5 -8 -3 -5 4 -21 15 -38 11
-16 24 -39 29 -51 5 -13 14 -23 20 -23 5 0 10 -6 10 -14 0 -8 31 -63 68 -122
37 -60 86 -138 107 -173 22 -35 46 -69 53 -76 6 -8 12 -16 12 -20 0 -10 63
-99 72 -103 4 -2 8 -8 8 -13 0 -11 42 -72 53 -77 4 -2 7 -8 7 -13 0 -10 10
-24 42 -59 9 -10 14 -21 11 -24 -3 -3 2 -8 11 -12 9 -3 16 -10 16 -15 0 -9
118 -175 145 -205 5 -7 19 -24 30 -40 11 -15 26 -33 33 -40 6 -7 12 -15 12
-18 0 -3 7 -14 14 -23 8 -10 37 -45 63 -78 26 -33 51 -62 56 -63 4 -2 7 -8 7
-14 0 -5 6 -15 13 -22 6 -8 30 -35 52 -62 22 -27 52 -61 67 -77 15 -15 27 -29
26 -30 -5 -8 30 -47 41 -47 8 0 12 -3 8 -6 -3 -3 4 -16 16 -29 12 -12 57 -63
100 -114 43 -50 83 -91 88 -91 5 0 9 -4 9 -9 0 -10 48 -63 206 -227 50 -52 88
-96 86 -99 -3 -3 -1 -5 4 -5 5 0 71 -61 147 -135 75 -74 137 -133 137 -132 0
2 33 -28 74 -67 41 -39 100 -93 132 -121 31 -27 72 -63 90 -80 18 -16 47 -41
64 -55 17 -14 43 -36 58 -50 15 -14 36 -32 48 -40 20 -14 104 -83 128 -105 6
-6 31 -26 56 -45 25 -19 51 -39 58 -45 7 -5 24 -20 37 -33 14 -13 25 -20 25
-17 0 4 7 0 15 -7 46 -42 175 -140 175 -134 0 3 15 -8 32 -25 18 -16 37 -29
43 -29 6 0 17 -9 25 -20 8 -11 18 -20 23 -20 5 0 27 -14 48 -31 21 -17 39 -28
39 -24 0 4 9 -3 20 -16 10 -13 19 -21 20 -17 0 4 8 1 18 -6 39 -32 112 -86
117 -86 3 0 27 -15 53 -33 26 -18 121 -79 212 -136 91 -57 177 -111 192 -122
15 -10 34 -19 43 -19 8 0 15 -4 15 -8 0 -5 15 -16 33 -25 17 -10 50 -28 72
-41 22 -13 60 -35 85 -48 25 -14 65 -36 90 -50 25 -14 88 -47 140 -74 52 -27
98 -53 101 -58 4 -5 11 -6 17 -2 6 3 12 2 14 -3 3 -9 213 -117 239 -123 8 -2
16 -5 19 -8 7 -8 172 -85 179 -84 3 0 12 -6 19 -13 7 -7 19 -13 26 -13 7 0 40
-13 74 -30 34 -16 65 -30 67 -30 3 0 24 -9 48 -19 104 -47 239 -101 250 -101
7 0 17 -4 23 -8 24 -20 574 -217 574 -205 0 3 6 1 13 -4 6 -6 53 -22 102 -37
50 -15 101 -31 115 -36 34 -11 143 -44 155 -46 6 -1 61 -16 123 -33 63 -17
121 -33 130 -35 10 -2 25 -6 34 -10 9 -4 22 -5 28 -1 5 3 10 2 10 -3 0 -5 6
-9 13 -10 25 -3 62 -10 62 -12 0 -1 8 -3 17 -5 9 -2 47 -11 84 -20 37 -9 76
-18 88 -20 12 -1 28 -5 36 -8 8 -3 22 -6 30 -6 8 0 44 -7 80 -16 74 -17 88
-20 168 -35 31 -5 68 -12 82 -15 32 -7 71 -14 113 -20 17 -3 45 -8 60 -11 16
-3 38 -7 50 -9 93 -12 124 -17 137 -20 8 -2 41 -7 73 -10 32 -4 68 -8 80 -11
22 -4 65 -9 155 -19 26 -3 58 -8 72 -10 14 -3 61 -7 105 -11 44 -3 94 -7 110
-9 17 -1 68 -6 115 -9 47 -4 105 -9 130 -12 258 -23 1145 -23 1380 1 19 2 78
7 130 11 131 9 136 10 220 19 41 4 86 9 100 10 83 8 151 16 170 20 12 2 48 7
81 10 33 4 70 8 82 11 43 9 145 24 167 25 8 1 34 5 58 10 23 5 57 11 75 14 50
7 239 42 267 50 14 4 32 7 40 7 8 0 33 5 55 10 22 6 49 12 60 14 11 2 31 6 45
9 14 3 34 7 45 9 11 3 61 14 110 26 50 12 97 24 105 25 54 13 147 37 160 42 8
4 18 6 22 5 4 -1 19 3 33 8 14 5 36 12 48 14 35 7 345 99 487 145 36 12 68 21
73 21 4 0 21 7 37 15 17 9 30 13 30 9 0 -4 6 -2 13 4 6 5 28 14 47 20 38 11
135 46 245 87 39 15 80 29 93 32 12 3 22 10 22 15 0 5 3 7 8 5 4 -3 25 3 46
14 22 10 43 19 47 19 3 0 33 12 65 27 33 14 66 28 74 29 8 2 23 7 35 13 11 6
83 38 160 72 77 33 146 65 153 71 6 6 12 8 12 4 0 -3 20 6 44 19 25 14 52 25
60 25 9 0 16 4 16 9 0 5 11 12 25 15 14 4 25 11 25 17 0 6 4 8 9 4 6 -3 27 4
48 16 53 31 132 69 139 68 4 0 10 3 13 8 3 4 50 30 104 57 53 27 97 54 97 59
0 6 3 8 6 4 3 -3 27 6 52 21 26 14 70 38 97 54 28 15 61 33 75 40 50 26 175
103 178 110 2 5 8 8 13 8 6 0 35 16 65 35 30 19 59 35 64 35 6 0 10 4 10 8 0
5 12 15 28 23 41 21 167 103 170 112 2 4 8 7 14 7 8 0 139 87 273 182 22 16
67 47 99 70 33 22 66 47 75 54 9 7 45 34 81 61 36 26 67 50 70 53 3 3 21 17
40 30 41 28 46 33 81 63 14 12 40 33 59 47 18 14 49 40 69 57 20 18 39 33 43
33 3 0 22 15 41 34 20 19 38 32 41 28 3 -3 6 2 6 11 0 9 3 16 8 15 4 -2 18 7
32 19 14 12 39 34 55 48 17 15 50 43 74 63 25 20 62 54 83 75 21 20 41 37 44
37 3 0 20 15 37 33 18 18 61 59 97 92 36 32 64 63 62 68 -1 5 1 6 6 3 7 -4
402 385 402 396 0 2 35 41 78 86 42 45 90 96 106 114 114 131 143 164 158 180
10 10 15 18 11 18 -4 0 3 7 15 16 12 8 20 20 17 25 -4 5 1 9 9 9 9 0 16 3 16
8 0 4 12 21 26 37 14 17 38 45 52 64 15 19 44 55 65 80 20 25 41 51 45 56 9
11 143 185 155 200 14 19 112 153 127 175 8 12 20 28 27 35 7 7 9 15 6 19 -4
3 -2 6 4 6 6 0 27 27 48 60 21 33 42 60 46 60 5 0 9 6 9 14 0 8 6 21 13 28 21
21 91 132 89 141 -1 4 2 7 7 7 9 0 22 20 187 288 62 100 108 180 101 177 -7
-4 -5 -1 4 7 17 14 97 153 89 154 -3 0 3 8 13 18 9 10 17 24 17 32 0 8 3 14 8
14 4 0 12 10 18 23 5 12 34 66 63 119 28 54 48 98 44 98 -4 0 -3 4 4 8 17 10
193 367 193 390 0 6 5 12 11 14 5 2 11 10 13 18 1 8 12 35 23 60 18 40 95 216
129 295 7 17 31 77 54 135 23 58 47 119 55 135 7 17 21 53 30 80 9 28 23 64
30 80 18 39 205 603 203 613 -1 4 4 20 10 35 7 16 10 33 6 38 -3 5 -1 9 4 9 5
0 14 21 20 48 6 26 23 90 37 142 14 52 27 104 30 115 2 11 4 20 5 20 1 0 3 7
5 15 2 8 7 26 10 40 3 14 8 34 10 45 2 11 13 56 24 99 11 44 18 82 16 85 -3 2
-1 9 4 15 5 6 12 31 16 55 3 23 10 53 14 65 5 11 9 24 9 29 0 4 4 26 8 50 4
23 8 49 9 57 0 9 4 21 9 28 4 6 5 12 3 12 -3 0 -1 19 5 43 5 23 18 92 29 152
27 153 27 155 33 205 3 25 10 70 15 100 9 53 15 92 26 190 3 25 7 61 10 80 20
147 43 420 63 730 9 146 9 872 0 1000 -5 58 -10 146 -13 195 -3 50 -8 111 -10
137 -3 27 -8 76 -10 110 -4 63 -13 146 -20 203 -2 17 -7 55 -10 85 -3 30 -7
64 -9 76 -2 12 -7 45 -11 75 -6 48 -12 96 -32 229 -3 19 -21 123 -40 230 -19
107 -36 208 -39 223 -2 16 -6 33 -10 38 -3 5 -8 26 -10 47 -3 20 -9 53 -14 72
-5 19 -12 47 -15 63 -3 15 -8 39 -11 55 -3 15 -30 124 -60 242 -30 118 -57
223 -59 233 -4 16 -19 65 -33 107 -8 24 -11 34 -15 50 -8 35 -41 143 -80 260
-22 69 -41 127 -42 130 -4 21 -40 118 -48 128 -5 6 -6 12 -2 12 4 0 0 11 -9
25 -9 14 -14 25 -11 25 7 0 -137 380 -181 475 -7 17 -28 64 -45 105 -112 267
-316 689 -436 900 -11 19 -39 71 -63 115 -24 44 -47 82 -50 85 -3 3 -14 22
-23 42 -10 20 -23 43 -30 50 -7 7 -21 29 -31 48 -33 63 -51 94 -99 168 -26 40
-47 76 -47 81 0 4 -9 16 -20 26 -11 10 -20 22 -20 26 0 11 -62 103 -72 107 -4
2 -8 8 -8 13 0 18 -128 198 -135 191 -5 -4 -5 -2 -2 4 3 6 -2 22 -13 35 -19
24 -97 133 -142 197 -13 19 -35 47 -50 63 -15 16 -24 29 -20 29 4 0 3 4 -3 8
-5 4 -32 38 -60 75 -27 38 -64 84 -82 103 -17 19 -28 34 -25 34 4 0 2 4 -4 8
-5 4 -23 25 -39 47 -16 22 -40 50 -52 62 -13 12 -23 26 -23 32 0 5 -3 11 -8
13 -4 2 -30 30 -57 63 -28 33 -54 65 -60 71 -11 12 -102 115 -132 150 -61 71
-206 227 -323 347 -74 76 -136 143 -138 148 -2 5 -7 9 -11 9 -5 0 -51 42 -103
93 -52 50 -132 126 -178 167 -45 41 -95 86 -110 100 -24 23 -92 82 -146 127
-12 10 -43 37 -70 59 -27 23 -78 66 -114 95 -36 30 -89 73 -117 97 -28 23 -55
42 -60 42 -4 0 -14 9 -21 20 -7 11 -17 20 -22 20 -6 0 -19 8 -29 18 -11 9 -26
22 -33 27 -7 6 -32 25 -54 43 -23 17 -45 32 -48 32 -3 0 -14 8 -25 18 -27 24
-62 51 -93 70 -16 9 -28 20 -28 24 0 4 -6 8 -13 8 -7 0 -24 11 -39 25 -15 13
-32 26 -39 27 -6 2 -25 15 -43 31 -17 15 -34 27 -39 27 -5 0 -15 6 -22 13 -30
26 -44 37 -50 37 -3 0 -34 20 -70 45 -36 25 -65 43 -65 39 0 -3 -9 4 -20 17
-10 13 -19 20 -20 16 0 -4 -6 -3 -12 3 -24 21 -137 90 -147 90 -5 0 -11 4 -13
8 -5 12 -108 73 -108 64 0 -4 -4 -2 -8 3 -13 19 -69 55 -76 48 -3 -3 -6 -2 -6
3 0 5 -17 18 -37 29 -21 11 -40 22 -43 25 -3 3 -27 17 -55 30 -27 14 -52 28
-55 31 -14 15 -118 68 -123 62 -4 -3 -7 -2 -7 3 0 5 -39 29 -88 54 -48 25 -90
49 -93 53 -3 5 -9 8 -13 8 -9 -1 -40 12 -46 18 -5 6 -181 95 -190 96 -3 1 -52
24 -110 52 -58 28 -175 81 -260 118 -85 37 -168 73 -185 80 -77 34 -219 88
-232 88 -7 0 -13 3 -13 7 0 5 -32 18 -90 35 -3 1 -18 7 -35 14 -16 7 -75 29
-130 48 -55 19 -109 38 -120 43 -69 29 -664 208 -710 214 -12 1 -25 5 -30 8
-6 3 -32 10 -60 17 -27 7 -66 17 -85 22 -94 25 -316 73 -330 72 -3 -1 -12 3
-21 7 -8 5 -37 11 -64 15 -26 3 -50 7 -54 9 -3 2 -22 7 -41 10 -47 8 -82 14
-170 31 -134 25 -154 28 -190 31 -19 1 -36 3 -37 4 -5 4 -15 6 -78 14 -32 4
-66 9 -75 11 -8 1 -37 6 -65 9 -27 4 -61 9 -75 11 -14 2 -52 6 -85 10 -59 7
-77 8 -200 20 -33 3 -73 9 -90 13 -33 7 -1818 15 -1826 8z"/>
</g>
</svg>
